<svg id="svg" version="1.1" xmlns="http://www.w3.org/2000/svg" xmlns:xlink="http://www.w3.org/1999/xlink" width="400" height="103.4965034965035" viewBox="0, 0, 400,103.4965034965035"><g id="svgg"><path id="path0" d="M7.167 66.592 L 7.167 103.372 7.542 103.285 C 7.879 103.206,9.562 102.550,10.417 102.164 C 10.880 101.954,13.669 100.898,14.125 100.759 L 14.500 100.644 14.500 66.575 L 14.500 32.506 14.042 32.397 C 13.790 32.337,13.508 32.232,13.417 32.165 C 13.325 32.098,12.950 31.950,12.583 31.835 C 12.217 31.721,11.692 31.528,11.417 31.406 C 10.777 31.124,8.033 30.075,7.542 29.925 L 7.167 29.811 7.167 66.592 M91.083 30.112 C 90.717 30.237,90.192 30.443,89.917 30.568 C 89.642 30.694,89.229 30.850,89.000 30.917 C 88.771 30.983,88.358 31.138,88.083 31.262 C 87.581 31.487,85.504 32.275,84.958 32.447 C 84.682 32.534,84.667 34.304,84.669 66.561 L 84.671 100.583 86.544 101.307 C 87.574 101.705,88.642 102.130,88.917 102.252 C 89.856 102.669,91.718 103.338,91.776 103.280 C 91.808 103.248,91.815 86.720,91.792 66.552 L 91.750 29.883 91.083 30.112 " stroke="none" fill="#fca41c" fill-rule="evenodd"></path><path id="path1" d="M147.747 26.468 C 146.382 26.937,145.595 28.912,146.169 30.423 C 146.317 30.811,146.274 30.935,145.838 31.381 C 144.362 32.890,145.307 35.676,147.289 35.661 C 148.704 35.650,149.497 34.860,149.499 33.458 C 149.500 32.486,149.687 32.459,150.501 33.314 C 151.549 34.416,151.652 35.740,150.701 35.892 C 147.841 36.349,148.603 40.907,151.494 40.630 C 152.181 40.564,152.289 40.592,152.210 40.818 C 152.051 41.276,151.316 41.968,150.772 42.171 C 150.485 42.279,150.089 42.443,149.893 42.535 C 148.611 43.140,145.642 42.315,144.906 41.150 C 144.416 40.373,144.402 40.269,144.822 40.494 C 146.808 41.557,148.775 39.173,147.682 37.030 C 145.853 33.445,141.448 38.330,143.154 42.051 C 144.910 45.882,152.474 45.615,153.763 41.676 C 154.160 40.461,154.039 38.125,153.533 37.269 C 153.270 36.824,153.167 36.377,153.167 35.692 C 153.167 32.728,151.286 30.500,148.786 30.500 C 148.051 30.500,147.551 29.139,148.088 28.602 C 148.479 28.212,148.833 28.453,148.833 29.110 L 148.833 29.684 149.708 29.634 L 150.583 29.583 150.560 28.708 C 150.518 27.087,149.138 25.989,147.747 26.468 M213.192 26.944 C 212.246 27.688,211.771 29.210,212.163 30.239 L 212.325 30.667 209.996 30.667 L 207.667 30.667 207.667 31.750 L 207.667 32.833 211.080 32.833 L 214.494 32.833 214.599 33.252 C 214.772 33.942,214.452 34.146,213.349 34.046 C 210.292 33.769,208.500 34.860,208.500 37.000 C 208.500 38.887,209.106 39.364,212.034 39.780 C 214.164 40.083,214.835 40.409,214.831 41.136 C 214.820 43.109,210.378 43.296,210.065 41.337 L 209.957 40.667 208.958 40.667 L 207.958 40.667 208.065 41.199 C 208.581 43.779,209.743 44.717,212.395 44.694 C 214.972 44.672,216.138 43.911,216.497 42.015 C 216.959 39.581,215.983 38.351,213.250 37.922 C 210.167 37.438,209.503 36.996,210.952 36.391 C 212.276 35.838,214.333 36.326,214.333 37.192 C 214.333 37.454,214.470 37.500,215.250 37.500 L 216.167 37.500 216.167 36.700 C 216.167 36.260,216.078 35.812,215.970 35.703 C 215.819 35.552,215.829 35.404,216.012 35.061 C 216.651 33.867,216.082 31.000,215.206 31.000 C 214.375 31.000,213.628 29.183,214.248 28.668 C 214.678 28.312,215.000 28.595,215.000 29.328 L 215.000 30.000 215.833 30.000 L 216.667 30.000 216.667 28.989 C 216.667 26.790,214.789 25.685,213.192 26.944 M391.981 28.583 C 391.742 28.713,391.464 29.029,391.363 29.285 C 391.147 29.837,391.130 34.620,391.344 35.019 C 391.447 35.213,391.388 35.382,391.139 35.604 C 389.980 36.639,389.326 39.879,389.825 42.111 C 390.332 44.378,392.812 45.517,394.266 44.152 L 394.667 43.775 395.057 44.142 C 397.188 46.144,399.917 43.865,399.917 40.083 C 399.917 36.286,398.105 34.183,394.683 34.007 C 393.179 33.930,392.912 33.874,392.865 33.625 C 392.814 33.360,392.999 33.333,394.904 33.333 L 397.000 33.333 397.000 32.255 L 397.000 31.177 394.958 31.130 C 393.043 31.086,392.917 31.063,392.917 30.750 C 392.917 30.430,393.043 30.415,396.125 30.371 L 399.333 30.326 399.333 29.330 L 399.333 28.333 395.875 28.340 C 393.214 28.345,392.316 28.401,391.981 28.583 M185.167 31.148 L 185.167 32.129 185.958 32.237 C 187.143 32.399,187.864 32.776,188.386 33.509 L 188.855 34.167 185.261 34.167 L 181.667 34.167 181.667 35.247 L 181.667 36.327 185.625 36.372 L 189.583 36.417 189.581 38.583 C 189.578 40.960,189.343 41.742,188.411 42.475 C 187.738 43.004,187.336 42.589,186.664 40.667 C 185.934 38.579,185.046 37.667,183.747 37.667 C 181.224 37.667,180.159 41.658,182.104 43.821 C 182.972 44.787,183.215 44.852,183.540 44.208 C 183.668 43.956,183.872 43.592,183.994 43.400 C 184.196 43.082,184.157 42.996,183.570 42.458 C 182.814 41.765,182.674 40.803,183.238 40.180 C 183.959 39.383,184.381 39.839,184.999 42.083 C 185.616 44.326,186.838 45.120,188.883 44.607 C 190.492 44.203,191.630 41.203,191.467 37.796 L 191.397 36.333 193.074 36.348 C 194.145 36.357,194.596 36.409,194.324 36.491 C 191.733 37.277,192.147 41.667,194.812 41.667 C 196.308 41.667,197.120 40.193,196.964 37.763 C 196.788 35.017,195.968 34.284,192.939 34.167 L 190.795 34.083 190.531 33.417 C 190.387 33.050,190.189 32.661,190.092 32.552 C 189.996 32.443,189.731 32.097,189.505 31.783 C 188.746 30.733,187.508 30.169,185.958 30.168 L 185.167 30.167 185.167 31.148 M138.471 30.589 C 138.226 30.722,137.669 31.413,137.233 32.124 C 135.943 34.231,135.348 34.664,135.000 33.750 C 134.855 33.369,134.755 33.333,133.837 33.333 C 132.676 33.333,132.586 33.522,133.153 34.772 C 133.461 35.449,133.461 35.465,133.138 35.788 C 132.203 36.723,131.735 39.532,132.239 41.191 C 133.961 46.867,141.040 45.494,141.040 39.485 C 141.040 37.007,139.613 34.333,138.290 34.333 C 137.988 34.333,137.989 34.317,138.308 33.875 C 138.961 32.968,139.343 32.667,139.840 32.667 L 140.333 32.667 140.333 31.601 C 140.333 30.783,140.272 30.512,140.070 30.434 C 139.631 30.266,138.942 30.333,138.471 30.589 M169.291 30.638 C 169.039 30.804,168.388 31.622,167.845 32.455 C 166.701 34.208,165.723 34.660,165.672 33.458 C 165.669 33.390,165.254 33.333,164.750 33.333 L 163.833 33.333 163.833 33.925 C 163.833 35.081,164.681 36.000,165.748 36.000 C 167.533 36.000,168.608 38.301,168.002 40.824 C 167.605 42.479,166.156 43.212,165.238 42.221 C 164.741 41.685,164.708 41.539,164.609 39.417 C 164.269 32.165,155.500 32.202,155.500 39.456 C 155.500 43.744,160.141 46.471,162.793 43.740 L 163.352 43.164 163.777 43.669 C 164.896 44.999,167.093 45.119,168.399 43.922 L 169.011 43.362 169.280 43.773 C 170.037 44.927,172.602 45.072,173.668 44.019 C 175.846 41.869,175.666 36.192,173.370 34.612 C 172.439 33.971,170.907 33.798,171.055 34.350 C 171.114 34.570,171.163 35.069,171.164 35.458 C 171.166 35.986,171.233 36.167,171.425 36.167 C 173.835 36.167,174.075 42.400,171.673 42.637 C 170.604 42.742,170.003 41.693,170.001 39.719 C 169.999 38.056,169.445 35.951,168.836 35.298 C 168.400 34.830,168.391 34.873,169.169 33.830 C 169.951 32.782,170.096 32.673,170.708 32.669 C 171.266 32.666,171.443 30.642,170.903 30.434 C 170.419 30.249,169.755 30.333,169.291 30.638 M237.286 30.449 C 236.810 30.573,236.288 31.164,235.527 32.440 C 234.488 34.182,233.672 34.700,233.530 33.707 C 233.481 33.364,233.388 33.333,232.405 33.333 C 231.235 33.333,231.243 33.325,231.493 34.404 C 231.610 34.907,231.583 35.178,231.379 35.571 C 231.068 36.171,231.028 37.710,231.306 38.384 C 231.586 39.064,232.905 39.610,234.833 39.842 C 237.060 40.110,237.857 40.689,237.337 41.660 C 236.424 43.366,232.667 42.915,232.667 41.100 L 232.667 40.500 231.643 40.500 L 230.620 40.500 230.713 41.398 C 230.937 43.572,232.438 44.731,235.014 44.717 C 236.723 44.709,237.470 44.458,238.333 43.602 C 239.137 42.805,239.540 39.763,238.870 39.540 C 238.758 39.503,238.667 39.373,238.667 39.251 C 238.667 38.832,237.686 38.190,236.874 38.078 C 233.163 37.565,232.462 37.297,233.117 36.642 C 233.931 35.828,237.000 36.175,237.000 37.081 C 237.000 37.276,237.211 37.333,237.931 37.333 L 238.863 37.333 238.745 36.625 C 238.570 35.571,238.231 35.033,237.415 34.516 C 236.694 34.059,236.687 34.045,236.957 33.651 C 237.434 32.954,237.867 32.667,238.442 32.667 L 239.000 32.667 239.000 31.673 C 239.000 30.427,238.565 30.117,237.286 30.449 M280.852 30.452 C 280.366 30.644,279.953 31.128,279.129 32.468 C 278.059 34.207,277.301 34.678,277.068 33.750 C 276.971 33.364,276.891 33.333,275.967 33.333 L 274.971 33.333 275.085 34.042 C 275.347 35.669,275.959 36.058,278.202 36.020 C 281.153 35.970,282.085 36.566,282.610 38.836 C 283.142 41.139,281.465 43.651,280.345 42.228 C 280.155 41.986,280.000 41.699,280.000 41.589 C 280.000 41.121,279.277 39.140,278.958 38.734 C 277.404 36.758,274.500 38.187,274.500 40.928 C 274.500 42.532,274.645 42.950,275.546 43.935 C 276.511 44.991,276.552 44.992,277.110 43.977 L 277.531 43.213 276.918 42.617 C 276.099 41.822,275.954 40.933,276.534 40.259 C 277.307 39.360,277.664 39.780,278.340 42.383 C 278.756 43.984,280.205 45.122,281.369 44.761 C 281.487 44.724,281.783 44.651,282.027 44.598 C 282.772 44.435,283.623 43.452,284.015 42.299 C 285.225 38.744,283.859 34.892,281.129 34.157 C 280.373 33.953,280.358 33.854,280.984 33.184 C 281.323 32.821,281.621 32.667,281.984 32.667 L 282.500 32.667 282.500 31.601 C 282.500 30.783,282.439 30.512,282.236 30.434 C 281.922 30.314,281.176 30.323,280.852 30.452 M296.138 30.589 C 295.893 30.722,295.336 31.413,294.900 32.124 C 293.610 34.231,293.014 34.664,292.667 33.750 C 292.435 33.141,290.498 33.103,290.504 33.708 C 290.530 36.399,293.695 36.863,295.532 34.446 C 296.718 32.885,296.960 32.667,297.506 32.667 L 298.000 32.667 298.000 31.601 C 298.000 30.783,297.939 30.512,297.736 30.434 C 297.298 30.266,296.609 30.333,296.138 30.589 M317.304 30.589 C 317.059 30.722,316.502 31.413,316.067 32.124 C 314.776 34.231,314.181 34.664,313.833 33.750 C 313.602 33.141,311.664 33.103,311.670 33.708 C 311.684 35.062,312.727 36.000,314.219 36.000 C 315.312 36.000,315.636 35.776,316.956 34.108 C 318.061 32.712,318.109 32.673,318.708 32.669 C 319.266 32.666,319.443 30.642,318.903 30.434 C 318.465 30.266,317.776 30.333,317.304 30.589 M352.123 30.777 C 351.780 31.020,351.500 31.281,351.500 31.355 C 351.500 31.558,350.060 33.743,349.763 33.989 C 349.436 34.261,348.995 34.099,348.881 33.666 C 348.807 33.381,348.653 33.333,347.814 33.333 L 346.833 33.333 346.833 33.844 C 346.833 34.125,346.913 34.505,347.011 34.688 C 347.159 34.964,347.093 35.139,346.618 35.719 C 343.983 38.939,344.781 44.455,347.917 44.694 C 348.728 44.756,349.175 44.638,349.654 44.235 L 350.167 43.804 350.672 44.229 C 352.495 45.763,354.908 44.252,355.347 41.301 C 355.782 38.373,354.762 35.850,352.691 34.731 L 351.851 34.277 352.161 33.847 C 352.936 32.772,353.245 32.577,354.042 32.658 C 354.497 32.704,354.469 30.751,354.011 30.506 C 353.465 30.214,352.775 30.313,352.123 30.777 M222.069 30.801 C 220.678 31.378,220.088 32.613,220.501 34.087 C 221.234 36.704,224.833 35.983,224.833 33.220 L 224.833 32.648 225.349 32.949 C 225.941 33.294,226.444 34.173,226.596 35.127 C 226.702 35.785,226.701 35.785,226.059 35.895 C 223.331 36.361,223.704 40.779,226.459 40.637 C 227.650 40.576,227.750 40.717,227.042 41.461 C 225.239 43.354,219.833 42.712,219.833 40.605 C 219.833 40.568,220.302 40.575,220.875 40.620 C 223.711 40.843,224.244 36.436,221.444 35.911 C 218.401 35.340,216.793 40.838,219.276 43.322 C 221.225 45.271,226.059 45.233,228.039 43.253 C 229.276 42.016,229.667 39.298,228.877 37.417 C 228.684 36.958,228.480 36.058,228.422 35.417 C 228.244 33.450,228.033 32.882,227.149 31.999 C 225.781 30.630,223.678 30.134,222.069 30.801 M325.667 31.667 L 325.667 32.667 328.739 32.667 C 331.664 32.667,331.816 32.683,331.917 33.000 C 332.189 33.857,331.938 34.000,330.155 34.000 L 328.500 34.000 328.500 35.000 L 328.500 36.000 330.183 36.000 C 332.859 36.000,333.543 35.461,333.570 33.333 C 333.600 30.877,333.234 30.667,328.933 30.667 L 325.667 30.667 325.667 31.667 M248.083 31.892 C 246.248 32.744,245.975 36.097,247.703 36.560 C 249.616 37.073,250.897 36.182,250.897 34.340 C 250.897 33.294,251.492 33.500,252.703 34.965 C 254.499 37.137,253.973 42.660,251.970 42.666 C 251.690 42.667,251.000 41.929,251.000 41.628 C 251.000 41.539,250.898 41.231,250.773 40.942 C 250.648 40.653,250.413 40.102,250.251 39.717 C 249.025 36.798,245.333 38.105,245.333 41.458 C 245.333 44.237,247.830 45.814,249.598 44.153 L 249.976 43.798 250.577 44.256 C 251.645 45.071,253.369 44.832,254.315 43.738 C 255.634 42.212,256.090 37.721,255.167 35.344 C 254.087 32.566,250.451 30.794,248.083 31.892 M147.826 32.741 C 148.296 33.307,147.643 34.298,147.097 33.845 C 146.784 33.585,146.745 32.730,147.042 32.610 C 147.413 32.461,147.622 32.495,147.826 32.741 M223.173 32.845 C 223.365 33.204,223.016 34.000,222.667 34.000 C 222.579 34.000,222.388 33.818,222.242 33.595 C 221.921 33.105,222.156 32.500,222.667 32.500 C 222.844 32.500,223.071 32.655,223.173 32.845 M249.158 33.740 C 249.516 34.171,249.310 34.917,248.833 34.917 C 248.481 34.917,248.408 34.829,248.363 34.351 C 248.291 33.605,248.752 33.251,249.158 33.740 M116.770 34.164 C 115.719 34.497,115.000 35.624,115.000 36.937 L 115.000 37.667 115.827 37.667 C 116.650 37.667,116.655 37.664,116.833 37.002 C 117.048 36.204,117.596 35.973,118.251 36.402 C 119.154 36.994,118.728 37.639,117.083 38.171 C 113.231 39.416,114.411 45.530,118.333 44.648 C 118.746 44.556,119.251 44.323,119.455 44.131 L 119.827 43.781 120.252 44.206 C 123.025 46.980,126.168 41.487,124.733 36.375 C 124.610 35.935,127.188 35.803,128.114 36.202 L 128.583 36.404 127.981 36.461 C 126.298 36.619,125.657 39.511,126.984 40.958 C 129.139 43.307,131.691 39.342,130.249 35.887 C 129.541 34.194,128.962 34.002,124.542 34.001 L 121.167 34.000 121.167 34.979 C 121.167 35.916,121.187 35.962,121.629 36.051 C 122.809 36.287,123.334 37.309,123.332 39.365 C 123.330 42.404,121.141 44.141,120.870 41.319 L 120.791 40.500 119.895 40.500 C 119.022 40.500,119.000 40.512,119.000 40.975 C 119.000 42.218,117.878 42.976,117.069 42.280 C 116.130 41.472,116.710 40.538,118.618 39.785 C 122.071 38.422,120.302 33.043,116.770 34.164 M201.417 34.146 C 197.858 35.068,196.781 40.806,199.641 43.613 C 201.837 45.769,205.324 44.810,206.437 41.744 C 207.927 37.639,205.005 33.216,201.417 34.146 M263.833 35.083 L 263.833 36.167 264.342 36.167 C 265.607 36.167,266.453 37.490,265.511 37.994 C 264.294 38.645,263.509 38.086,262.827 36.083 C 261.735 32.873,257.333 33.801,257.333 37.241 L 257.333 38.000 258.145 38.000 C 258.955 38.000,258.958 37.998,259.058 37.375 C 259.272 36.042,260.119 35.604,260.924 36.409 C 261.639 37.124,261.395 37.594,260.045 38.103 C 257.697 38.988,256.761 40.729,257.487 42.860 C 258.111 44.691,260.988 45.470,262.225 44.143 C 262.508 43.839,262.581 43.823,262.736 44.034 C 263.067 44.483,263.739 44.722,264.666 44.721 C 266.573 44.720,267.667 43.536,267.667 41.475 L 267.667 40.667 266.773 40.667 L 265.879 40.667 265.879 41.348 C 265.879 42.205,265.412 42.724,264.661 42.703 C 263.879 42.681,263.500 42.253,263.500 41.391 L 263.500 40.667 262.583 40.667 C 261.682 40.667,261.667 40.675,261.667 41.153 C 261.667 42.746,259.959 43.421,259.252 42.108 C 258.739 41.156,259.352 40.396,261.083 39.839 C 261.450 39.721,261.887 39.504,262.055 39.357 C 262.336 39.112,262.373 39.113,262.519 39.373 C 262.730 39.750,264.079 40.334,264.730 40.330 C 266.553 40.317,267.981 38.478,267.582 36.658 L 267.474 36.167 269.028 36.169 C 269.884 36.171,270.696 36.244,270.833 36.333 C 271.023 36.456,270.954 36.496,270.544 36.497 C 268.320 36.508,268.150 40.895,270.350 41.503 C 272.167 42.005,273.366 40.290,273.111 37.555 C 272.825 34.488,272.007 34.010,267.042 34.004 L 263.833 34.000 263.833 35.083 M296.667 34.975 C 296.667 35.992,296.668 35.994,297.319 36.326 C 299.161 37.266,299.561 40.568,298.032 42.208 C 297.047 43.265,296.168 42.386,295.741 39.917 C 295.136 36.412,290.500 37.255,290.500 40.870 C 290.500 42.268,291.851 44.667,292.639 44.667 C 293.269 44.667,293.612 42.996,293.083 42.500 C 291.953 41.438,292.434 39.215,293.630 39.974 C 293.747 40.048,293.920 40.590,294.014 41.179 C 294.450 43.891,295.803 45.022,298.095 44.592 C 301.909 43.877,301.261 34.572,297.361 34.049 L 296.667 33.956 296.667 34.975 M304.965 34.199 C 301.022 35.247,300.861 43.021,304.752 44.501 C 310.034 46.509,312.976 38.242,308.291 34.556 C 307.649 34.050,306.135 33.888,304.965 34.199 M317.833 34.997 C 317.833 35.980,317.841 35.997,318.458 36.313 C 320.325 37.269,320.727 40.844,319.133 42.328 C 318.234 43.166,317.509 42.574,317.001 40.589 C 316.270 37.729,314.192 36.769,312.547 38.531 C 311.364 39.798,311.493 42.393,312.813 43.875 C 313.591 44.748,313.766 44.757,314.242 43.945 C 314.772 43.042,314.772 43.040,314.167 42.333 C 313.892 42.012,313.656 41.600,313.641 41.417 C 313.473 39.292,314.806 39.189,315.251 41.292 C 315.864 44.187,317.024 45.154,319.208 44.588 C 321.234 44.062,322.307 41.185,321.674 37.970 C 321.364 36.396,320.829 35.519,319.564 34.510 C 319.388 34.370,318.231 34.003,317.958 34.001 C 317.890 34.000,317.833 34.448,317.833 34.997 M334.500 34.959 C 334.500 35.870,334.526 35.930,335.011 36.145 C 336.854 36.961,337.364 40.590,335.863 42.208 C 335.244 42.876,334.000 42.464,334.000 41.592 C 334.000 38.127,329.554 36.687,328.520 39.817 C 327.423 43.139,330.366 46.250,332.611 44.140 L 333.002 43.773 333.335 44.130 C 334.301 45.167,337.022 44.744,337.418 43.496 C 337.475 43.315,337.589 43.167,337.671 43.167 C 337.864 43.167,338.430 41.321,338.566 40.250 C 338.664 39.474,338.280 37.103,337.925 36.292 C 337.767 35.931,340.648 35.858,341.447 36.202 L 341.917 36.404 341.315 36.461 C 338.801 36.697,339.111 41.283,341.653 41.467 C 343.340 41.589,344.186 40.144,343.944 37.555 C 343.654 34.450,342.890 34.002,337.875 34.001 L 334.500 34.000 334.500 34.959 M356.833 35.000 L 356.833 36.000 357.417 36.000 C 358.001 36.000,358.132 36.129,357.848 36.425 C 357.178 37.125,356.984 39.969,357.502 41.506 C 358.863 45.546,363.898 45.861,365.698 42.020 C 366.216 40.914,366.216 37.953,365.698 36.792 L 365.345 36.000 367.048 36.006 C 368.208 36.010,368.883 36.088,369.167 36.250 C 369.583 36.488,369.583 36.488,368.949 36.494 C 367.219 36.510,366.524 39.452,367.905 40.915 C 368.504 41.550,369.515 41.714,370.388 41.316 C 372.032 40.567,372.048 36.102,370.412 34.690 C 369.663 34.045,369.175 34.000,362.876 34.000 L 356.833 34.000 356.833 35.000 M374.750 34.184 C 373.694 34.509,372.844 35.777,372.837 37.042 L 372.833 37.667 373.750 37.667 C 374.617 37.667,374.667 37.644,374.667 37.250 C 374.667 36.296,375.883 35.871,376.458 36.624 C 376.937 37.251,376.559 37.695,375.216 38.086 C 371.532 39.157,371.744 44.664,375.469 44.666 C 376.545 44.667,377.099 44.484,377.445 44.014 C 377.619 43.778,377.682 43.790,378.043 44.129 C 379.454 45.454,381.931 44.518,382.652 42.388 C 382.985 41.404,383.068 37.927,382.785 36.875 L 382.549 36.000 384.097 36.000 C 384.948 36.000,385.856 36.088,386.114 36.194 L 386.583 36.389 385.863 36.499 C 383.280 36.893,383.748 41.500,386.372 41.500 C 387.912 41.500,388.501 40.587,388.499 38.197 C 388.497 34.493,387.810 34.002,382.625 34.001 L 379.333 34.000 379.335 34.958 C 379.337 35.910,379.341 35.919,379.971 36.183 C 381.473 36.813,381.835 40.454,380.562 42.125 C 379.812 43.110,378.833 42.642,378.833 41.296 L 378.833 40.667 377.956 40.667 L 377.078 40.667 376.793 41.470 C 376.327 42.782,375.098 43.051,374.673 41.935 C 374.320 41.005,374.869 40.343,376.417 39.834 C 377.834 39.367,378.333 38.671,378.333 37.167 C 378.333 34.867,376.767 33.564,374.750 34.184 M138.445 37.075 C 140.599 39.776,138.192 43.949,135.422 42.315 C 133.680 41.287,133.372 38.273,134.867 36.878 C 135.939 35.877,137.560 35.966,138.445 37.075 M160.938 36.267 C 162.953 37.099,163.490 39.818,162.011 41.698 C 160.605 43.486,158.036 42.624,157.470 40.175 C 156.900 37.705,158.917 35.432,160.938 36.267 M307.142 36.355 C 309.848 37.479,309.257 42.667,306.424 42.667 C 303.374 42.667,302.500 37.600,305.333 36.343 C 306.260 35.932,306.124 35.932,307.142 36.355 M362.349 36.256 C 365.341 37.311,364.841 42.667,361.750 42.667 C 358.280 42.667,358.148 36.614,361.604 36.004 C 361.615 36.002,361.951 36.115,362.349 36.256 M395.350 36.178 C 398.046 37.027,399.152 40.278,397.429 42.292 C 396.748 43.088,395.833 42.517,395.833 41.296 L 395.833 40.667 394.750 40.667 L 393.667 40.667 393.667 41.329 C 393.667 42.118,393.115 42.607,392.420 42.432 C 390.957 42.065,391.070 38.422,392.589 36.995 C 393.325 36.303,394.574 35.934,395.350 36.178 M203.400 36.399 C 206.022 37.495,205.290 42.667,202.513 42.667 C 201.762 42.667,201.615 42.599,200.957 41.958 C 198.437 39.500,200.358 35.128,203.400 36.399 M351.717 36.607 C 353.069 37.299,353.743 38.646,353.641 40.450 C 353.507 42.815,351.333 43.613,351.333 41.296 L 351.333 40.667 350.260 40.667 L 349.186 40.667 349.135 41.358 C 348.969 43.592,346.833 42.552,346.833 40.238 C 346.833 37.411,349.466 35.454,351.717 36.607 M146.500 38.437 C 146.500 38.910,146.024 39.203,145.621 38.978 C 145.256 38.774,145.251 38.200,145.610 37.803 C 145.958 37.419,146.500 37.805,146.500 38.437 M151.609 38.128 C 151.717 38.559,151.537 39.016,151.216 39.123 C 150.871 39.237,150.470 38.642,150.584 38.186 C 150.782 37.397,151.417 37.361,151.609 38.128 M221.593 37.909 C 222.024 38.566,221.587 39.318,220.923 39.063 C 220.380 38.854,220.591 37.500,221.167 37.500 C 221.254 37.500,221.446 37.684,221.593 37.909 M226.760 37.909 C 227.059 38.365,226.962 38.915,226.556 39.071 C 225.976 39.293,225.634 38.518,226.006 37.822 C 226.236 37.393,226.437 37.416,226.760 37.909 M128.924 38.958 C 128.874 39.088,128.833 39.255,128.833 39.329 C 128.833 39.600,128.336 39.646,128.088 39.398 C 127.745 39.055,127.765 38.390,128.125 38.180 C 128.472 37.978,129.075 38.565,128.924 38.958 M342.266 38.586 C 342.366 38.985,342.097 39.667,341.839 39.667 C 341.580 39.667,341.167 39.155,341.167 38.833 C 341.167 38.046,342.078 37.841,342.266 38.586 M370.000 38.833 C 370.000 39.306,369.389 39.754,369.086 39.503 C 368.739 39.214,368.763 38.389,369.125 38.187 C 369.470 37.994,370.000 38.385,370.000 38.833 M386.633 38.200 C 387.152 38.718,386.629 39.953,386.083 39.500 C 385.659 39.148,385.851 38.000,386.333 38.000 C 386.388 38.000,386.523 38.090,386.633 38.200 M195.175 38.516 C 195.465 39.057,195.239 39.667,194.750 39.667 C 194.456 39.667,194.311 39.553,194.239 39.266 C 194.120 38.792,194.411 38.167,194.750 38.167 C 194.881 38.167,195.072 38.324,195.175 38.516 M271.345 38.521 C 271.573 38.948,271.311 39.667,270.926 39.667 C 270.579 39.667,270.286 39.047,270.406 38.568 C 270.533 38.062,271.084 38.034,271.345 38.521 M331.327 40.163 C 331.973 40.509,332.088 41.734,331.534 42.375 C 330.681 43.360,329.576 41.686,330.286 40.484 C 330.588 39.972,330.830 39.897,331.327 40.163 M248.568 40.483 C 248.917 40.869,248.962 41.698,248.664 42.255 C 248.376 42.793,247.623 42.815,247.259 42.296 C 246.461 41.157,247.667 39.487,248.568 40.483 M119.000 46.250 L 119.000 47.333 119.917 47.333 L 120.833 47.333 120.833 46.250 L 120.833 45.167 119.917 45.167 L 119.000 45.167 119.000 46.250 M267.868 46.428 C 267.332 46.803,266.833 47.879,266.833 48.660 L 266.833 49.333 267.657 49.333 L 268.480 49.333 268.532 48.721 C 268.602 47.882,268.886 47.859,269.248 48.662 C 269.639 49.530,270.548 49.660,270.745 48.876 C 271.005 47.840,271.369 47.764,271.732 48.670 C 271.958 49.235,272.100 50.171,271.958 50.165 C 271.935 50.164,271.548 50.051,271.099 49.915 C 268.573 49.149,266.552 50.104,266.708 51.990 C 266.859 53.824,269.590 54.741,271.291 53.530 C 271.936 53.071,272.000 53.075,272.000 53.573 C 272.000 54.153,272.277 54.250,272.931 53.897 C 273.531 53.574,273.634 53.228,273.309 52.621 C 273.077 52.187,273.083 51.598,273.328 50.686 C 273.549 49.865,274.000 49.740,274.000 50.500 C 274.000 50.960,274.046 51.000,274.583 51.000 C 275.120 51.000,275.167 50.960,275.167 50.500 C 275.167 50.078,275.231 50.000,275.583 50.000 C 275.966 50.000,276.000 49.939,276.000 49.250 C 276.000 48.561,275.966 48.500,275.583 48.500 C 275.218 48.500,275.167 48.428,275.167 47.917 C 275.167 47.361,275.139 47.333,274.583 47.333 C 274.025 47.333,274.000 47.359,274.000 47.929 C 274.000 48.773,273.508 48.637,273.160 47.697 C 272.666 46.358,271.456 45.783,270.517 46.440 C 270.154 46.694,270.092 46.694,269.662 46.440 C 269.078 46.095,268.350 46.090,267.868 46.428 M315.926 46.278 C 313.309 47.023,312.222 51.088,314.194 52.748 C 314.816 53.270,316.159 53.341,316.625 52.875 C 316.903 52.597,316.931 52.597,317.208 52.875 C 317.979 53.645,319.775 53.070,320.358 51.867 C 321.783 48.923,318.992 45.405,315.926 46.278 M329.545 46.580 C 327.901 47.295,327.869 50.334,329.497 51.165 C 330.104 51.475,330.475 51.500,334.410 51.500 L 338.667 51.500 338.667 50.417 L 338.667 49.333 335.607 49.333 L 332.546 49.333 332.449 48.513 C 332.248 46.812,330.969 45.961,329.545 46.580 M318.439 48.595 C 319.078 49.274,319.190 50.149,318.746 51.008 C 318.466 51.549,318.011 51.668,317.981 51.208 C 317.970 51.048,317.951 50.804,317.939 50.667 C 317.895 50.173,316.000 50.226,316.000 50.721 C 316.000 51.334,315.530 51.660,315.232 51.254 C 313.808 49.306,316.783 46.839,318.439 48.595 M330.758 48.405 C 331.226 49.120,330.458 49.891,329.867 49.300 C 329.589 49.023,329.617 48.665,329.942 48.305 C 330.306 47.903,330.440 47.920,330.758 48.405 M316.233 48.734 C 315.953 49.463,316.236 50.082,316.874 50.135 C 317.645 50.199,318.025 49.636,317.697 48.917 C 317.479 48.439,316.398 48.304,316.233 48.734 M270.721 51.313 L 271.191 51.623 270.740 51.978 C 270.142 52.448,269.019 52.459,268.477 52.000 L 268.083 51.667 268.477 51.333 C 268.984 50.904,270.085 50.894,270.721 51.313 M316.000 54.500 L 316.000 55.500 316.917 55.500 L 317.833 55.500 317.833 54.500 L 317.833 53.500 316.917 53.500 L 316.000 53.500 316.000 54.500 M147.857 56.909 C 145.988 57.586,145.345 59.637,146.393 61.583 L 146.662 62.083 133.581 62.126 L 120.500 62.169 120.500 63.001 L 120.500 63.833 121.417 63.833 L 122.333 63.833 122.333 65.667 L 122.333 67.500 121.083 67.500 L 119.833 67.500 119.833 65.429 C 119.833 62.533,119.269 61.891,116.846 62.028 C 115.225 62.119,114.568 62.855,114.697 64.433 L 114.750 65.083 115.616 65.133 L 116.482 65.183 116.356 64.717 C 116.176 64.050,116.294 63.713,116.746 63.599 C 117.669 63.368,117.828 63.713,117.831 65.950 L 117.833 67.483 116.875 67.533 C 115.917 67.583,115.917 67.583,115.862 68.154 C 115.778 69.033,118.217 71.378,119.136 71.301 L 119.750 71.250 119.800 70.208 L 119.849 69.167 121.091 69.167 L 122.333 69.167 122.333 71.500 L 122.333 73.833 123.417 73.833 L 124.500 73.833 124.500 68.833 L 124.500 63.833 125.833 63.833 L 127.167 63.833 127.167 68.833 L 127.167 73.833 128.333 73.833 L 129.500 73.833 129.500 68.833 L 129.500 63.833 132.750 63.833 L 136.000 63.833 136.000 65.167 C 136.000 66.892,135.689 67.320,134.728 66.918 C 134.397 66.780,134.108 66.667,134.086 66.667 C 134.055 66.667,133.483 65.847,133.055 65.188 C 132.990 65.087,131.501 66.072,131.500 66.217 C 131.500 66.377,131.975 67.313,132.187 67.568 C 132.270 67.668,132.510 68.012,132.720 68.333 C 133.760 69.922,134.472 70.888,135.697 72.375 C 137.245 74.254,137.023 74.146,137.937 73.458 C 138.852 72.770,138.855 72.787,137.622 71.500 C 136.735 70.575,135.500 68.989,135.500 68.776 C 135.500 68.740,135.847 68.671,136.270 68.623 C 137.693 68.463,138.065 67.875,138.141 65.666 L 138.204 63.833 142.852 63.833 L 147.500 63.833 147.500 64.735 L 147.500 65.637 144.875 65.694 C 141.939 65.757,141.497 65.902,141.061 66.945 C 140.382 68.569,141.215 70.720,143.389 72.958 C 144.392 73.992,144.502 74.009,145.273 73.260 L 145.863 72.687 144.769 71.571 C 141.909 68.654,142.115 67.333,145.429 67.333 L 147.500 67.333 147.500 70.583 L 147.500 73.833 148.583 73.833 L 149.667 73.833 149.667 68.833 L 149.667 63.833 151.167 63.833 L 152.667 63.833 152.667 68.833 L 152.667 73.833 153.667 73.833 L 154.667 73.833 154.667 68.833 L 154.667 63.833 156.663 63.833 C 158.581 63.833,158.669 63.849,158.919 64.230 C 159.954 65.809,159.249 67.126,157.352 67.157 L 156.787 67.167 156.878 68.051 C 157.151 70.700,160.368 72.449,163.125 71.447 C 163.493 71.313,163.500 71.335,163.500 72.572 L 163.500 73.833 164.583 73.833 L 165.667 73.833 165.667 68.833 L 165.667 63.833 166.417 63.833 L 167.167 63.833 167.167 63.002 L 167.167 62.171 160.882 62.127 L 154.598 62.083 154.468 61.458 C 153.799 58.233,150.489 55.956,147.857 56.909 M181.966 57.149 C 181.535 57.394,181.135 57.643,181.077 57.700 C 180.986 57.791,183.019 60.307,184.256 61.635 L 184.674 62.083 184.172 62.135 C 183.549 62.200,183.391 62.089,181.413 60.197 C 180.533 59.355,179.760 58.667,179.696 58.667 C 179.563 58.667,178.748 60.319,178.850 60.379 C 178.887 60.400,179.157 60.586,179.452 60.792 C 179.746 60.998,180.024 61.167,180.071 61.167 C 180.117 61.167,180.510 61.392,180.944 61.667 L 181.732 62.167 176.449 62.167 L 171.167 62.167 171.167 63.000 L 171.167 63.833 171.917 63.833 L 172.667 63.833 172.683 65.792 C 172.707 68.551,173.144 69.407,174.774 69.882 L 175.496 70.093 173.826 71.071 C 171.790 72.264,171.866 72.134,172.716 72.961 L 173.417 73.644 175.667 71.794 L 177.917 69.944 177.964 71.889 L 178.011 73.833 179.172 73.833 L 180.333 73.833 180.333 68.833 L 180.333 63.833 181.750 63.833 L 183.167 63.833 183.167 68.833 L 183.167 73.833 184.250 73.833 L 185.333 73.833 185.333 68.833 L 185.333 63.833 188.667 63.833 L 192.000 63.833 192.000 64.333 L 192.000 64.833 190.317 64.833 C 187.337 64.833,186.334 66.501,188.195 68.362 C 188.809 68.975,188.830 69.031,188.589 69.376 C 188.448 69.577,188.333 70.089,188.333 70.514 C 188.333 73.140,192.896 73.919,195.875 71.803 L 196.333 71.477 196.333 72.655 L 196.333 73.833 197.417 73.833 L 198.500 73.833 198.500 68.833 L 198.500 63.833 199.833 63.833 L 201.167 63.833 201.167 68.833 L 201.167 73.833 202.250 73.833 L 203.333 73.833 203.333 68.833 L 203.333 63.833 204.667 63.833 L 206.000 63.833 206.000 68.833 L 206.000 73.833 207.083 73.833 L 208.167 73.833 208.167 68.833 L 208.167 63.833 210.083 63.833 L 212.000 63.833 212.000 65.583 L 212.000 67.333 211.367 67.333 C 209.708 67.333,210.276 68.820,212.414 70.073 C 214.073 71.045,214.167 70.876,214.167 66.903 L 214.167 63.833 215.500 63.833 L 216.833 63.833 216.833 68.833 L 216.833 73.833 217.917 73.833 L 219.000 73.833 219.000 68.833 L 219.000 63.833 222.917 63.833 L 226.833 63.833 226.833 66.385 L 226.833 68.938 226.359 69.392 C 225.233 70.470,223.667 69.866,223.667 68.354 C 223.667 67.422,224.228 66.881,225.349 66.732 C 226.107 66.632,226.183 66.584,226.093 66.268 C 226.037 66.075,225.945 65.701,225.888 65.437 C 225.680 64.482,222.883 65.220,222.082 66.441 C 221.700 67.025,221.555 68.906,221.828 69.734 C 222.389 71.435,224.609 72.229,226.542 71.420 C 226.805 71.310,226.833 71.423,226.833 72.566 L 226.833 73.833 227.917 73.833 L 229.000 73.833 229.000 71.115 L 229.000 68.396 229.474 67.942 C 231.630 65.876,232.695 69.072,230.592 71.296 L 230.006 71.917 230.378 72.213 C 230.583 72.376,230.956 72.662,231.208 72.849 L 231.665 73.189 232.173 72.636 C 235.458 69.060,233.595 64.230,229.578 65.908 L 229.000 66.150 229.000 64.991 L 229.000 63.833 232.667 63.833 L 236.333 63.833 236.333 68.833 L 236.333 73.833 237.417 73.833 L 238.500 73.833 238.500 68.833 L 238.500 63.833 239.250 63.833 L 240.000 63.833 240.000 63.000 L 240.000 62.167 239.167 62.167 C 238.440 62.167,238.333 62.123,238.333 61.828 C 238.333 61.396,237.550 59.526,237.238 59.214 C 237.107 59.083,237.000 58.915,237.000 58.841 C 237.000 58.348,235.469 57.293,234.191 56.905 C 230.952 55.922,228.464 58.829,230.175 61.597 L 230.527 62.167 223.937 62.167 L 217.348 62.167 216.882 61.564 C 213.244 56.855,208.094 55.482,206.072 58.684 C 205.630 59.386,205.496 61.202,205.839 61.844 C 206.004 62.152,205.944 62.167,204.548 62.165 L 203.083 62.164 202.250 61.143 C 201.792 60.582,201.316 60.018,201.192 59.890 C 201.069 59.762,200.516 59.116,199.965 58.454 C 198.573 56.783,198.522 56.771,197.322 57.798 C 196.866 58.189,196.849 58.162,198.458 59.587 C 199.260 60.297,200.241 61.169,200.638 61.524 L 201.358 62.170 193.665 62.127 L 185.972 62.083 184.452 59.375 C 183.616 57.885,182.891 56.675,182.841 56.685 C 182.791 56.694,182.397 56.903,181.966 57.149 M302.467 57.142 C 302.036 57.385,301.632 57.638,301.568 57.704 C 301.468 57.809,302.255 58.893,303.000 59.675 C 303.595 60.300,305.000 61.982,305.000 62.070 C 305.000 62.705,303.811 62.031,302.079 60.417 C 299.896 58.381,300.121 58.477,299.682 59.386 C 299.199 60.384,299.176 60.342,300.708 61.260 L 302.083 62.083 299.958 62.130 L 297.833 62.177 297.833 63.005 L 297.833 63.833 301.167 63.833 L 304.500 63.833 304.500 64.500 L 304.500 65.167 302.102 65.167 C 299.275 65.167,298.909 65.315,298.938 66.443 C 298.955 67.086,299.548 68.171,300.105 68.578 C 300.349 68.757,300.324 68.850,299.855 69.497 C 298.322 71.613,299.784 73.989,303.147 74.850 C 304.778 75.267,304.755 75.271,305.065 74.497 C 305.404 73.649,305.407 73.667,304.943 73.667 C 304.456 73.667,302.734 73.082,302.211 72.740 C 300.548 71.650,301.536 69.762,303.769 69.762 C 305.081 69.762,305.537 70.334,304.829 71.088 L 304.491 71.448 305.129 71.891 C 306.266 72.679,307.167 72.016,307.167 70.392 C 307.167 68.869,306.060 68.167,303.657 68.167 C 302.206 68.167,302.157 68.154,301.668 67.642 C 300.913 66.852,300.963 66.833,303.833 66.833 L 306.500 66.833 306.500 65.333 L 306.500 63.833 310.750 63.833 L 315.000 63.833 315.000 64.583 L 315.000 65.333 313.244 65.333 C 310.428 65.333,309.167 66.251,309.167 68.301 C 309.167 70.457,311.153 72.161,313.678 72.169 C 314.941 72.173,315.102 72.274,315.360 73.222 L 315.594 74.083 316.494 74.044 C 317.687 73.993,317.759 73.877,317.238 72.840 L 316.796 71.961 317.224 71.564 C 318.365 70.506,317.772 68.667,316.289 68.667 C 315.504 68.667,314.667 69.391,314.667 70.071 C 314.667 70.597,314.074 70.652,312.962 70.230 C 311.982 69.859,311.499 69.297,311.503 68.532 C 311.508 67.250,312.065 67.000,314.911 67.000 L 317.167 67.000 317.167 65.417 L 317.167 63.833 321.000 63.833 L 324.833 63.833 324.833 65.167 C 324.833 67.543,323.788 67.781,322.244 65.756 C 321.805 65.181,321.787 65.175,321.345 65.436 C 320.340 66.030,320.103 66.278,320.311 66.521 C 320.420 66.647,320.974 67.462,321.544 68.333 C 322.113 69.204,322.638 69.992,322.710 70.083 C 322.781 70.175,323.308 70.850,323.879 71.583 C 324.449 72.317,325.154 73.170,325.444 73.480 L 325.971 74.043 326.444 73.706 C 327.625 72.864,327.648 72.747,326.799 71.870 C 325.583 70.614,325.165 70.128,324.669 69.394 L 324.204 68.705 325.034 68.626 C 326.523 68.483,326.897 67.912,326.974 65.666 L 327.037 63.833 328.602 63.833 L 330.167 63.833 330.167 68.833 L 330.167 73.833 331.250 73.833 L 332.333 73.833 332.333 68.833 L 332.333 63.833 336.333 63.833 L 340.333 63.833 340.333 66.343 C 340.333 68.304,340.288 68.827,340.125 68.732 C 340.010 68.666,339.542 68.374,339.083 68.083 C 338.625 67.793,337.991 67.398,337.674 67.206 L 337.099 66.857 337.557 66.742 C 337.809 66.678,338.431 66.661,338.940 66.703 L 339.864 66.780 339.765 66.286 C 339.711 66.014,339.667 65.651,339.667 65.479 C 339.667 64.973,336.989 65.024,335.998 65.548 C 333.007 67.129,333.864 71.311,337.270 71.758 C 338.040 71.860,339.274 71.704,340.042 71.409 C 340.304 71.309,340.333 71.427,340.333 72.566 L 340.333 73.833 341.417 73.833 L 342.500 73.833 342.500 68.833 L 342.500 63.833 343.917 63.833 L 345.333 63.833 345.333 68.833 L 345.333 73.833 346.417 73.833 L 347.500 73.833 347.500 68.833 L 347.500 63.833 351.417 63.833 L 355.333 63.833 355.333 64.583 L 355.333 65.333 353.680 65.333 C 350.166 65.333,348.816 66.958,349.872 69.917 C 350.249 70.973,352.458 72.164,354.049 72.169 C 355.262 72.173,355.428 72.280,355.768 73.280 L 356.080 74.199 356.875 74.093 C 358.170 73.922,358.164 73.931,357.660 72.875 L 357.210 71.931 357.689 71.453 C 358.748 70.393,358.115 68.667,356.667 68.667 C 356.025 68.667,355.167 69.238,355.167 69.664 C 355.167 70.610,354.556 70.742,353.117 70.106 C 352.101 69.656,351.723 69.046,351.917 68.166 C 352.127 67.210,352.745 67.001,355.375 67.001 L 357.667 67.000 357.667 65.417 L 357.667 63.833 358.833 63.833 L 360.000 63.833 360.000 63.001 L 360.000 62.168 333.215 62.126 L 306.430 62.083 304.923 59.377 C 304.095 57.889,303.379 56.678,303.333 56.686 C 303.287 56.693,302.898 56.899,302.467 57.142 M253.500 59.333 L 253.500 60.500 254.667 60.500 L 255.833 60.500 255.833 59.333 L 255.833 58.167 254.667 58.167 L 253.500 58.167 253.500 59.333 M150.760 58.746 C 151.431 59.258,151.910 60.018,152.329 61.238 L 152.652 62.177 150.702 62.130 L 148.752 62.083 148.434 61.417 C 147.339 59.118,148.899 57.327,150.760 58.746 M234.416 58.667 C 235.217 59.161,236.333 61.172,236.333 62.119 C 236.333 62.151,235.490 62.156,234.458 62.130 L 232.583 62.083 232.130 61.167 C 231.097 59.075,232.534 57.503,234.416 58.667 M211.009 58.862 C 211.849 59.154,212.628 59.724,213.884 60.964 L 215.017 62.083 211.479 62.128 C 207.472 62.179,207.673 62.249,207.669 60.804 C 207.666 59.757,208.167 58.922,208.881 58.784 C 209.621 58.640,210.463 58.671,211.009 58.862 M267.080 62.158 C 266.895 62.233,266.502 62.520,266.205 62.797 L 265.667 63.300 265.667 62.734 L 265.667 62.167 254.750 62.167 L 243.833 62.167 243.833 63.000 L 243.833 63.833 246.250 63.833 L 248.667 63.833 248.667 65.167 C 248.667 67.317,247.896 67.730,246.892 66.118 C 246.652 65.732,246.437 65.395,246.415 65.368 C 246.331 65.266,244.844 66.259,244.839 66.420 C 244.836 66.513,245.021 66.865,245.250 67.202 C 245.479 67.540,245.667 67.860,245.667 67.915 C 245.667 67.969,245.743 68.105,245.837 68.215 C 245.930 68.326,246.324 68.904,246.712 69.500 C 247.099 70.096,247.492 70.665,247.583 70.764 C 247.675 70.864,247.900 71.151,248.083 71.403 C 248.467 71.930,249.835 73.720,249.924 73.812 C 249.974 73.863,250.977 73.150,251.565 72.647 C 251.647 72.577,251.422 72.202,251.065 71.814 C 250.708 71.426,250.267 70.946,250.083 70.747 C 249.711 70.343,248.667 68.867,248.667 68.745 C 248.667 68.702,248.813 68.667,248.992 68.667 C 249.558 68.667,250.183 68.286,250.443 67.782 L 250.695 67.296 251.174 67.856 C 251.437 68.165,251.656 68.473,251.660 68.542 C 251.664 68.610,252.079 68.667,252.583 68.667 L 253.500 68.667 253.500 71.250 L 253.500 73.833 254.583 73.833 L 255.667 73.833 255.667 68.833 L 255.667 63.833 258.667 63.833 L 261.667 63.833 261.667 65.217 C 261.667 67.286,260.923 67.702,259.968 66.167 C 259.683 65.708,259.422 65.333,259.388 65.333 C 259.331 65.333,257.993 66.146,257.856 66.264 C 257.755 66.350,259.167 68.713,260.250 70.271 C 260.654 70.853,262.658 73.525,262.844 73.730 C 262.919 73.812,263.185 73.717,263.447 73.515 C 263.705 73.315,264.094 73.020,264.311 72.859 L 264.706 72.565 263.721 71.407 C 261.620 68.939,261.453 68.667,262.042 68.666 C 262.566 68.665,263.448 68.093,263.584 67.666 C 263.715 67.252,264.229 67.575,264.426 68.195 C 264.482 68.372,264.737 68.556,265.001 68.608 C 265.320 68.672,265.541 68.862,265.676 69.189 C 266.639 71.513,270.764 72.567,273.389 71.160 L 274.000 70.833 274.000 72.333 L 274.000 73.833 275.083 73.833 L 276.167 73.833 276.167 68.833 L 276.167 63.833 277.667 63.833 L 279.167 63.833 279.167 68.833 L 279.167 73.833 280.250 73.833 L 281.333 73.833 281.333 68.833 L 281.333 63.833 285.750 63.833 L 290.167 63.833 290.167 65.167 L 290.167 66.500 287.026 66.500 C 283.113 66.500,282.942 66.584,283.742 68.111 C 285.083 70.671,286.833 71.306,286.833 69.232 L 286.833 68.167 288.500 68.167 L 290.167 68.167 290.167 71.000 L 290.167 73.833 291.250 73.833 L 292.333 73.833 292.333 68.833 L 292.333 63.833 293.000 63.833 L 293.667 63.833 293.667 63.000 L 293.667 62.167 283.000 62.167 L 272.333 62.167 272.333 63.000 L 272.333 63.833 273.167 63.833 L 274.000 63.833 274.000 65.974 L 274.000 68.115 273.307 68.801 C 271.819 70.274,269.737 70.590,268.744 69.494 C 268.457 69.176,268.462 69.167,268.903 69.167 C 269.882 69.167,271.266 68.048,271.765 66.855 C 272.896 64.148,269.808 61.051,267.080 62.158 M269.329 63.996 C 270.243 64.909,269.806 66.861,268.583 67.330 C 267.621 67.699,267.167 67.704,267.167 67.347 C 267.167 67.018,267.078 67.000,265.417 67.000 L 263.667 67.000 263.667 65.417 L 263.667 63.833 264.564 63.833 L 265.462 63.833 265.573 64.572 C 265.751 65.759,266.760 66.667,267.900 66.667 C 268.482 66.667,268.571 65.265,268.000 65.083 C 267.589 64.953,267.389 64.251,267.668 63.915 C 267.966 63.556,268.936 63.603,269.329 63.996 M163.500 66.512 C 163.500 69.504,163.500 69.505,162.319 69.922 C 161.048 70.370,159.886 70.075,159.427 69.186 L 159.165 68.680 159.799 68.509 C 161.255 68.117,162.026 66.006,161.268 64.486 C 161.121 64.191,161.000 63.923,161.000 63.891 C 161.000 63.859,161.563 63.833,162.250 63.833 L 163.500 63.833 163.500 66.512 M178.000 65.824 C 178.000 68.040,177.917 68.209,176.715 68.434 C 175.240 68.711,174.833 68.096,174.833 65.592 L 174.833 63.833 176.417 63.833 L 178.000 63.833 178.000 65.824 M196.296 66.532 L 196.250 69.231 195.333 69.942 C 194.829 70.333,194.357 70.656,194.284 70.660 C 194.210 70.664,193.840 70.817,193.461 71.000 C 192.126 71.645,190.667 71.289,190.667 70.318 C 190.667 69.592,191.316 69.247,192.615 69.283 L 193.668 69.312 193.564 68.864 C 193.295 67.701,193.119 67.609,191.392 67.722 C 189.844 67.824,189.820 67.819,189.637 67.417 C 189.282 66.638,189.628 66.500,191.937 66.500 L 194.000 66.500 194.000 65.167 L 194.000 63.833 195.171 63.833 L 196.342 63.833 196.296 66.532 M253.500 65.417 L 253.500 67.000 252.167 67.000 L 250.833 67.000 250.833 65.417 L 250.833 63.833 252.167 63.833 L 253.500 63.833 253.500 65.417 M338.083 68.749 C 340.041 69.926,340.070 70.032,338.452 70.134 C 337.582 70.188,337.344 70.141,336.960 69.839 C 336.176 69.220,335.954 67.359,336.729 67.901 C 336.924 68.037,337.533 68.419,338.083 68.749 M236.500 85.178 C 235.706 85.479,235.333 86.291,235.333 87.719 L 235.333 89.000 234.583 89.000 L 233.833 89.000 233.833 89.917 L 233.833 90.833 234.583 90.833 L 235.333 90.833 235.333 94.333 L 235.333 97.833 236.417 97.833 L 237.500 97.833 237.500 94.333 L 237.500 90.833 238.333 90.833 L 239.167 90.833 239.167 89.917 L 239.167 89.000 238.333 89.000 L 237.500 89.000 237.500 88.167 C 237.500 87.066,237.931 86.585,238.775 86.744 L 239.351 86.852 239.301 85.968 L 239.250 85.083 238.083 85.051 C 237.442 85.034,236.729 85.091,236.500 85.178 M132.667 87.615 C 132.667 89.600,132.627 90.015,132.458 89.806 C 131.472 88.587,129.113 88.742,128.234 90.084 C 126.800 92.273,127.323 96.787,129.110 97.641 C 130.222 98.172,131.699 97.976,132.416 97.204 L 132.833 96.753 132.833 97.293 L 132.833 97.833 133.938 97.833 L 135.042 97.833 134.938 97.313 C 134.880 97.026,134.833 94.176,134.833 90.979 L 134.833 85.167 133.750 85.167 L 132.667 85.167 132.667 87.615 M265.667 91.500 L 265.667 97.833 266.833 97.833 L 268.000 97.833 268.000 94.742 C 268.000 91.318,268.156 90.833,269.257 90.833 C 270.205 90.833,270.322 91.255,270.328 94.708 L 270.333 97.833 271.500 97.833 L 272.667 97.833 272.667 94.587 C 272.667 90.972,272.530 90.297,271.625 89.441 C 270.945 88.798,268.848 88.823,268.315 89.481 C 268.003 89.867,268.000 89.851,268.000 87.518 L 268.000 85.167 266.833 85.167 L 265.667 85.167 265.667 91.500 M292.000 91.500 L 292.000 97.833 293.167 97.833 L 294.333 97.833 294.333 91.500 L 294.333 85.167 293.167 85.167 L 292.000 85.167 292.000 91.500 M349.167 87.615 C 349.167 89.600,349.127 90.015,348.958 89.806 C 347.978 88.595,345.774 88.719,344.774 90.041 C 343.546 91.665,343.674 95.718,344.998 97.118 C 345.979 98.155,347.943 98.250,348.826 97.303 L 349.149 96.956 349.259 97.395 C 349.364 97.812,349.422 97.833,350.453 97.833 C 351.372 97.833,351.520 97.793,351.434 97.570 C 351.379 97.425,351.333 94.575,351.333 91.236 L 351.333 85.167 350.250 85.167 L 349.167 85.167 349.167 87.615 M375.500 91.500 L 375.500 97.833 376.500 97.833 C 377.456 97.833,377.500 97.815,377.500 97.417 C 377.500 96.900,377.581 96.898,378.178 97.401 C 379.175 98.240,380.982 98.086,381.928 97.083 C 383.480 95.437,383.268 91.002,381.566 89.507 C 380.762 88.801,379.141 88.763,378.346 89.431 L 377.833 89.863 377.833 87.515 L 377.833 85.167 376.667 85.167 L 375.500 85.167 375.500 91.500 M397.667 87.515 L 397.667 89.863 397.154 89.431 C 396.241 88.663,394.664 88.792,393.745 89.711 C 392.281 91.175,392.150 95.111,393.503 96.952 C 394.366 98.125,396.551 98.314,397.499 97.296 L 397.833 96.937 397.833 97.385 C 397.833 97.826,397.852 97.833,398.917 97.833 L 400.000 97.833 400.000 91.500 L 400.000 85.167 398.833 85.167 L 397.667 85.167 397.667 87.515 M136.778 85.444 C 136.717 85.506,136.667 86.031,136.667 86.611 L 136.667 87.667 137.833 87.667 L 139.000 87.667 139.000 86.500 L 139.000 85.333 137.944 85.333 C 137.364 85.333,136.839 85.383,136.778 85.444 M188.333 86.500 L 188.333 87.667 189.500 87.667 L 190.667 87.667 190.667 86.500 L 190.667 85.333 189.500 85.333 L 188.333 85.333 188.333 86.500 M114.667 91.917 L 114.667 97.833 115.833 97.833 L 117.000 97.833 117.000 91.917 L 117.000 86.000 115.833 86.000 L 114.667 86.000 114.667 91.917 M162.500 91.917 L 162.500 97.833 163.667 97.833 L 164.833 97.833 164.833 91.917 L 164.833 86.000 163.667 86.000 L 162.500 86.000 162.500 91.917 M243.000 87.000 L 243.000 88.000 244.333 88.000 L 245.667 88.000 245.667 92.917 L 245.667 97.833 246.750 97.833 L 247.833 97.833 247.833 92.917 L 247.833 88.000 249.167 88.000 L 250.500 88.000 250.500 87.000 L 250.500 86.000 246.750 86.000 L 243.000 86.000 243.000 87.000 M326.500 91.917 L 326.500 97.833 327.667 97.833 L 328.833 97.833 328.833 95.250 L 328.833 92.667 330.417 92.667 L 332.000 92.667 332.000 95.250 L 332.000 97.833 333.167 97.833 L 334.333 97.833 334.333 91.917 L 334.333 86.000 333.167 86.000 L 332.000 86.000 332.000 88.333 L 332.000 90.667 330.417 90.667 L 328.833 90.667 328.833 88.333 L 328.833 86.000 327.667 86.000 L 326.500 86.000 326.500 91.917 M184.167 86.987 L 183.250 87.286 183.200 88.143 L 183.149 89.000 182.491 89.000 L 181.833 89.000 181.833 89.917 L 181.833 90.833 182.500 90.833 L 183.167 90.833 183.167 93.497 C 183.167 97.364,183.485 97.925,185.667 97.910 C 187.047 97.901,187.167 97.816,187.167 96.849 L 187.167 96.021 186.580 96.116 C 185.467 96.297,185.333 95.987,185.333 93.224 L 185.333 90.833 186.250 90.833 L 187.167 90.833 187.167 89.917 L 187.167 89.000 186.250 89.000 L 185.333 89.000 185.333 87.833 C 185.333 87.192,185.277 86.672,185.208 86.678 C 185.140 86.684,184.671 86.823,184.167 86.987 M194.340 87.006 C 193.839 87.186,193.408 87.333,193.381 87.333 C 193.355 87.333,193.333 87.708,193.333 88.167 L 193.333 89.000 192.667 89.000 L 192.000 89.000 192.000 89.917 L 192.000 90.833 192.653 90.833 L 193.306 90.833 193.361 93.738 C 193.434 97.556,193.980 98.305,196.391 97.896 L 197.250 97.750 197.299 96.902 L 197.349 96.053 196.641 96.068 C 195.627 96.090,195.505 95.768,195.502 93.042 L 195.500 90.833 196.417 90.833 L 197.333 90.833 197.333 89.917 L 197.333 89.000 196.417 89.000 L 195.500 89.000 195.500 87.833 C 195.500 87.192,195.444 86.669,195.375 86.673 C 195.306 86.676,194.840 86.826,194.340 87.006 M208.840 87.006 C 208.339 87.186,207.908 87.333,207.881 87.333 C 207.855 87.333,207.833 87.708,207.833 88.167 L 207.833 89.000 207.167 89.000 L 206.500 89.000 206.500 89.917 L 206.500 90.833 207.167 90.833 L 207.833 90.833 207.833 93.313 C 207.833 96.996,208.112 97.680,209.714 97.920 C 211.198 98.142,211.742 97.877,211.799 96.902 L 211.848 96.065 211.255 96.134 C 210.228 96.254,210.167 96.094,210.167 93.313 L 210.167 90.833 211.000 90.833 L 211.833 90.833 211.833 89.917 L 211.833 89.000 211.000 89.000 L 210.167 89.000 210.167 87.833 C 210.167 86.509,210.187 86.522,208.840 87.006 M119.000 93.417 L 119.000 97.833 120.157 97.833 L 121.313 97.833 121.365 94.652 C 121.422 91.151,121.526 90.833,122.617 90.833 C 123.535 90.833,123.655 91.278,123.661 94.708 L 123.667 97.833 124.833 97.833 L 126.000 97.833 126.000 94.514 C 126.000 89.855,125.596 89.000,123.395 89.000 C 122.410 89.000,122.286 89.043,121.667 89.603 L 121.000 90.205 121.000 89.603 L 121.000 89.000 120.000 89.000 L 119.000 89.000 119.000 93.417 M136.833 93.417 L 136.833 97.833 137.917 97.833 L 139.000 97.833 139.000 93.417 L 139.000 89.000 137.917 89.000 L 136.833 89.000 136.833 93.417 M142.083 89.247 C 141.717 89.384,141.398 89.496,141.375 89.497 C 141.294 89.502,141.334 90.464,141.437 90.975 L 141.540 91.491 142.243 91.079 C 143.657 90.250,145.333 90.663,145.333 91.840 C 145.333 92.275,145.307 92.286,144.004 92.386 C 141.332 92.593,140.152 93.844,140.564 96.037 C 140.894 97.799,143.734 98.601,145.100 97.318 L 145.459 96.980 145.566 97.407 C 145.665 97.802,145.743 97.833,146.628 97.833 L 147.583 97.833 147.529 94.375 C 147.470 90.586,147.363 90.098,146.447 89.427 C 145.830 88.976,143.115 88.864,142.083 89.247 M149.227 89.773 C 149.286 90.199,149.333 92.186,149.333 94.190 L 149.333 97.833 150.403 97.833 L 151.474 97.833 151.528 94.763 C 151.591 91.282,151.750 90.833,152.927 90.833 C 153.840 90.833,154.000 91.438,154.000 94.900 L 154.000 97.833 155.083 97.833 L 156.167 97.833 156.167 94.328 C 156.167 89.497,155.969 89.083,153.660 89.083 C 152.444 89.083,152.321 89.116,151.844 89.573 L 151.333 90.062 151.333 89.531 L 151.333 89.000 150.227 89.000 L 149.121 89.000 149.227 89.773 M166.893 89.625 C 166.950 89.969,166.997 91.956,166.998 94.042 L 167.000 97.833 168.070 97.833 L 169.140 97.833 169.195 94.763 C 169.256 91.343,169.428 90.833,170.517 90.833 C 171.517 90.833,171.667 91.346,171.667 94.772 L 171.667 97.833 172.854 97.833 L 174.041 97.833 173.967 94.375 C 173.885 90.528,173.726 89.891,172.698 89.292 C 171.685 88.700,169.865 89.006,169.260 89.869 C 169.004 90.234,169.000 90.230,169.000 89.620 L 169.000 89.000 167.895 89.000 L 166.790 89.000 166.893 89.625 M177.000 89.137 C 174.445 90.294,174.617 92.586,177.376 94.149 C 179.753 95.495,178.755 96.933,176.163 95.896 C 175.344 95.568,175.370 95.545,175.234 96.703 L 175.124 97.640 175.937 97.778 C 180.940 98.630,182.936 95.380,178.985 92.814 C 177.404 91.786,177.183 91.484,177.663 91.004 C 178.069 90.597,178.927 90.562,179.776 90.917 C 180.105 91.054,180.402 91.167,180.437 91.167 C 180.472 91.167,180.500 90.726,180.500 90.188 C 180.500 89.224,180.492 89.207,179.979 89.104 C 179.304 88.969,177.322 88.991,177.000 89.137 M188.333 93.417 L 188.333 97.833 189.500 97.833 L 190.667 97.833 190.667 93.417 L 190.667 89.000 189.500 89.000 L 188.333 89.000 188.333 93.417 M198.500 92.516 C 198.500 95.419,198.547 96.133,198.771 96.604 C 199.484 98.107,201.452 98.450,202.762 97.300 L 203.333 96.799 203.333 97.316 L 203.333 97.833 204.417 97.833 L 205.500 97.833 205.500 93.417 L 205.500 89.000 204.333 89.000 L 203.167 89.000 203.167 91.822 C 203.167 95.139,202.972 95.884,202.069 96.017 C 200.889 96.191,200.669 95.528,200.668 91.792 L 200.667 89.000 199.583 89.000 L 198.500 89.000 198.500 92.516 M214.664 89.401 C 211.088 91.871,212.497 97.853,216.667 97.902 C 219.172 97.931,219.705 97.565,219.396 96.020 L 219.291 95.499 218.771 95.818 C 218.269 96.126,217.697 96.219,216.536 96.184 C 215.769 96.160,215.000 95.356,215.000 94.578 L 215.000 94.000 217.417 94.000 L 219.833 94.000 219.833 93.120 C 219.833 89.835,216.993 87.792,214.664 89.401 M227.361 89.347 C 224.736 90.684,224.727 96.219,227.349 97.589 C 228.514 98.198,230.725 98.021,231.754 97.236 C 233.690 95.759,233.616 91.210,231.629 89.637 C 230.703 88.903,228.524 88.755,227.361 89.347 M252.226 89.165 C 251.033 89.647,250.140 91.219,250.034 93.026 C 249.805 96.931,252.109 98.714,256.024 97.660 C 256.698 97.479,256.854 96.967,256.565 95.890 L 256.469 95.530 255.919 95.854 C 255.365 96.181,253.874 96.315,253.227 96.096 C 252.790 95.949,252.378 95.326,252.244 94.610 L 252.130 94.000 254.672 94.000 L 257.215 94.000 257.108 92.858 C 256.826 89.823,254.659 88.184,252.226 89.165 M260.897 89.115 C 259.544 89.381,258.333 91.450,258.333 93.499 C 258.333 96.601,260.165 98.288,263.132 97.918 C 264.498 97.747,264.500 97.745,264.500 96.714 C 264.500 95.907,264.465 95.812,264.208 95.917 C 262.243 96.723,260.667 95.623,260.667 93.446 C 260.667 91.284,262.071 90.096,263.678 90.898 C 264.330 91.223,264.272 91.281,264.372 90.195 C 264.476 89.063,263.193 88.664,260.897 89.115 M274.333 93.417 L 274.333 97.833 275.400 97.833 L 276.468 97.833 276.525 94.845 C 276.591 91.456,276.749 90.970,277.814 90.864 C 278.871 90.759,278.988 91.142,278.994 94.708 L 279.000 97.833 280.167 97.833 L 281.333 97.833 281.333 94.723 C 281.333 91.311,281.126 90.166,280.381 89.467 C 279.593 88.726,277.042 88.930,276.724 89.759 C 276.564 90.175,276.333 90.022,276.333 89.500 L 276.333 89.000 275.333 89.000 L 274.333 89.000 274.333 93.417 M284.719 89.346 C 282.065 90.659,282.075 96.226,284.733 97.622 C 285.620 98.088,287.768 98.001,288.686 97.463 C 290.592 96.346,291.078 92.237,289.545 90.217 C 288.636 89.019,286.249 88.588,284.719 89.346 M298.083 89.315 C 295.453 90.528,295.256 96.053,297.794 97.451 C 299.945 98.636,302.829 97.673,303.463 95.558 C 303.834 94.320,303.647 91.015,303.186 90.667 C 303.125 90.621,302.950 90.386,302.796 90.144 C 302.114 89.070,299.580 88.624,298.083 89.315 M306.692 89.282 C 304.255 90.483,304.436 96.558,306.941 97.604 C 307.957 98.029,309.691 97.732,309.937 97.091 C 310.097 96.673,310.333 96.796,310.333 97.298 C 310.333 99.220,308.692 100.096,306.505 99.341 C 305.376 98.951,305.333 98.978,305.333 100.078 L 305.333 100.969 306.113 101.234 C 307.335 101.651,309.562 101.587,310.500 101.108 C 312.228 100.226,312.492 99.158,312.497 93.042 L 312.500 89.000 311.500 89.000 L 310.500 89.000 310.497 89.625 C 310.496 89.969,310.440 90.174,310.372 90.081 C 309.615 89.033,307.937 88.669,306.692 89.282 M313.333 89.158 C 313.333 89.305,315.099 94.784,315.815 96.857 C 316.383 98.500,315.821 99.787,314.619 99.595 L 313.983 99.493 314.033 100.455 L 314.083 101.417 315.173 101.465 C 316.683 101.532,317.308 101.061,317.889 99.417 C 318.361 98.082,319.263 95.159,319.432 94.417 C 319.495 94.142,319.601 93.842,319.668 93.750 C 319.735 93.658,319.884 93.171,320.000 92.667 C 320.116 92.162,320.264 91.675,320.329 91.583 C 320.466 91.391,321.000 89.492,321.000 89.197 C 321.000 88.847,318.875 88.937,318.767 89.292 C 318.718 89.452,318.531 90.221,318.350 91.000 C 318.169 91.779,317.852 93.092,317.645 93.917 L 317.270 95.417 316.898 93.917 C 316.694 93.092,316.333 91.675,316.097 90.767 C 315.860 89.860,315.667 89.092,315.667 89.059 C 315.667 89.027,315.142 89.000,314.500 89.000 C 313.858 89.000,313.333 89.071,313.333 89.158 M335.500 89.051 C 335.500 89.157,335.848 90.220,336.002 90.583 C 336.079 90.767,336.266 91.329,336.417 91.833 C 336.567 92.337,336.754 92.900,336.832 93.083 C 338.574 97.175,338.575 99.957,336.833 99.608 C 336.387 99.519,336.372 99.540,336.290 100.383 C 336.189 101.424,336.268 101.494,337.548 101.497 C 339.107 101.502,339.825 100.782,340.463 98.576 C 340.647 97.938,340.962 96.892,341.161 96.250 C 341.361 95.608,341.673 94.558,341.855 93.917 C 342.036 93.275,342.254 92.600,342.338 92.417 C 342.423 92.233,342.650 91.521,342.843 90.833 C 343.036 90.146,343.235 89.448,343.285 89.284 C 343.368 89.012,343.269 88.988,342.236 89.034 C 341.121 89.082,341.093 89.095,340.979 89.583 C 340.915 89.858,340.570 91.227,340.213 92.626 L 339.564 95.168 339.207 93.959 C 339.010 93.294,338.802 92.525,338.744 92.250 C 338.686 91.975,338.594 91.638,338.540 91.500 C 338.485 91.362,338.322 90.763,338.177 90.167 L 337.913 89.083 336.706 89.034 C 336.043 89.007,335.500 89.015,335.500 89.051 M354.665 89.476 C 352.510 90.916,352.212 95.319,354.153 97.044 C 355.116 97.899,357.351 98.203,358.875 97.686 L 359.500 97.474 359.500 96.490 L 359.500 95.505 358.839 95.850 C 357.122 96.745,355.415 96.146,355.111 94.542 L 355.008 94.000 357.528 94.000 L 360.048 94.000 359.955 92.773 C 359.713 89.569,357.030 87.897,354.665 89.476 M361.500 93.417 L 361.500 97.833 362.667 97.833 L 363.833 97.833 363.836 95.125 C 363.839 91.512,364.004 91.121,365.529 91.121 L 366.167 91.121 366.167 90.061 L 366.167 89.000 365.575 89.000 C 364.805 89.000,364.071 89.389,363.761 89.960 L 363.513 90.417 363.507 89.708 L 363.500 89.000 362.500 89.000 L 361.500 89.000 361.500 93.417 M368.417 89.202 C 367.637 89.477,367.580 89.577,367.640 90.565 L 367.697 91.492 368.472 91.079 C 369.729 90.410,370.820 90.504,371.385 91.329 C 371.939 92.139,371.798 92.275,370.282 92.382 C 367.318 92.591,365.865 94.571,367.051 96.789 C 367.741 98.080,370.105 98.364,371.278 97.297 C 371.639 96.968,371.639 96.968,371.695 97.359 C 371.745 97.715,371.843 97.754,372.792 97.800 L 373.833 97.849 373.833 94.788 C 373.833 89.781,373.345 88.984,370.297 89.013 C 369.538 89.020,368.692 89.105,368.417 89.202 M385.522 89.284 L 384.794 89.541 384.897 90.294 C 384.954 90.708,385.000 91.138,385.000 91.251 C 385.000 91.384,385.268 91.319,385.778 91.061 C 387.286 90.297,388.605 90.632,388.892 91.852 L 388.995 92.287 387.622 92.375 C 384.908 92.549,383.655 93.860,384.073 96.089 C 384.391 97.780,387.058 98.573,388.434 97.386 L 388.917 96.969 388.969 97.401 C 389.020 97.815,389.067 97.833,390.065 97.833 L 391.108 97.833 391.040 94.625 C 390.950 90.417,390.722 89.670,389.364 89.148 C 388.753 88.914,386.327 88.999,385.522 89.284 M216.858 90.680 C 217.197 90.861,217.667 91.770,217.667 92.245 C 217.667 92.453,217.420 92.500,216.333 92.500 C 214.826 92.500,214.651 92.283,215.329 91.254 C 215.788 90.558,216.283 90.372,216.858 90.680 M254.181 90.714 C 255.399 91.649,255.074 92.500,253.500 92.500 C 252.043 92.500,252.038 92.495,252.440 91.489 C 252.795 90.604,253.582 90.253,254.181 90.714 M357.123 90.755 C 357.425 90.967,357.829 91.888,357.832 92.375 C 357.833 92.444,357.233 92.500,356.500 92.500 C 355.196 92.500,355.167 92.491,355.167 92.091 C 355.167 90.880,356.247 90.141,357.123 90.755 M132.056 91.165 C 133.092 92.396,132.724 95.737,131.509 96.127 C 130.241 96.534,129.596 95.520,129.692 93.272 C 129.794 90.894,130.956 89.858,132.056 91.165 M229.909 90.770 C 231.064 91.213,231.105 95.200,229.964 96.052 C 228.514 97.135,227.176 94.546,227.919 92.095 C 228.311 90.805,228.929 90.394,229.909 90.770 M287.469 91.050 C 288.495 92.142,288.230 95.675,287.083 96.197 C 286.047 96.669,285.147 95.557,285.035 93.667 C 284.897 91.334,286.309 89.816,287.469 91.050 M300.900 91.221 C 301.334 91.804,301.417 94.805,301.019 95.547 C 300.075 97.312,298.345 95.962,298.337 93.453 C 298.329 91.042,299.809 89.753,300.900 91.221 M309.122 90.771 C 309.998 91.006,310.595 93.328,310.122 94.667 C 309.208 97.259,307.392 96.420,307.350 93.386 C 307.322 91.351,307.931 90.452,309.122 90.771 M348.477 91.093 C 349.588 92.371,349.127 96.008,347.833 96.174 C 347.080 96.271,346.829 96.145,346.503 95.507 C 345.836 94.198,346.183 91.122,347.037 90.779 C 347.566 90.566,348.125 90.688,348.477 91.093 M380.067 90.924 C 380.734 91.591,380.875 94.820,380.277 95.732 C 379.674 96.652,378.343 96.244,378.007 95.036 C 377.272 92.388,378.693 89.550,380.067 90.924 M397.068 91.083 C 397.879 91.894,397.915 94.994,397.122 95.787 C 395.935 96.974,394.830 95.869,394.838 93.500 C 394.846 91.083,395.912 89.928,397.068 91.083 M145.333 94.425 C 145.333 95.734,144.858 96.333,143.820 96.333 C 142.367 96.333,142.280 94.266,143.716 93.851 C 145.019 93.474,145.333 93.586,145.333 94.425 M371.667 94.063 C 371.667 95.431,371.043 96.333,370.098 96.333 C 368.525 96.333,368.394 94.301,369.937 93.839 C 370.953 93.535,371.667 93.627,371.667 94.063 M388.907 94.458 C 388.610 96.529,386.167 97.178,386.167 95.186 C 386.167 94.176,386.807 93.726,388.302 93.686 L 389.020 93.667 388.907 94.458 " stroke="none" fill="#2c3494" fill-rule="evenodd"></path><path id="path2" d="M46.833 0.157 C 43.104 1.021,40.692 2.646,38.035 6.083 C 36.181 8.482,35.317 13.288,36.084 16.942 C 36.245 17.711,36.442 18.381,36.522 18.430 C 36.602 18.479,36.667 18.636,36.667 18.777 C 36.667 19.116,37.381 20.531,38.100 21.617 C 41.750 27.130,49.140 29.199,55.417 26.465 C 56.058 26.185,56.608 25.891,56.639 25.812 C 56.669 25.732,56.775 25.667,56.873 25.667 C 57.433 25.667,59.679 23.620,60.883 22.013 C 63.860 18.039,64.376 12.146,62.141 7.641 C 61.665 6.681,61.399 6.254,60.667 5.266 C 59.195 3.282,56.491 1.387,53.961 0.568 C 52.492 0.092,48.184 -0.156,46.833 0.157 M25.000 66.572 C 25.000 98.271,25.033 103.333,25.237 103.333 C 25.466 103.333,27.527 102.562,28.609 102.072 C 28.897 101.941,29.196 101.833,29.272 101.833 C 29.413 101.833,32.164 100.801,33.109 100.393 C 33.397 100.269,33.697 100.166,33.775 100.166 C 33.853 100.165,34.114 100.061,34.356 99.935 C 34.598 99.809,35.188 99.576,35.667 99.417 C 36.146 99.258,36.735 99.024,36.977 98.898 C 37.219 98.772,37.479 98.668,37.555 98.668 C 37.631 98.667,38.156 98.485,38.722 98.264 C 39.287 98.042,40.237 97.675,40.833 97.449 C 41.429 97.222,42.907 96.654,44.118 96.185 C 45.329 95.717,46.364 95.333,46.419 95.333 C 46.474 95.333,46.836 95.189,47.223 95.012 C 47.611 94.836,48.132 94.640,48.381 94.577 L 48.833 94.464 48.833 66.596 L 48.833 38.728 47.625 38.291 C 46.960 38.050,45.817 37.621,45.083 37.337 C 44.350 37.052,42.925 36.517,41.917 36.147 C 40.908 35.778,39.858 35.377,39.583 35.257 C 39.308 35.137,38.795 34.947,38.442 34.835 C 38.090 34.722,37.602 34.526,37.359 34.399 C 37.116 34.273,36.848 34.168,36.764 34.168 C 36.620 34.167,34.493 33.371,33.417 32.915 C 33.142 32.799,32.729 32.650,32.500 32.583 C 32.271 32.517,31.858 32.363,31.583 32.241 C 31.308 32.119,30.333 31.747,29.417 31.413 C 28.500 31.079,27.300 30.632,26.750 30.421 C 26.200 30.209,25.581 29.985,25.375 29.924 L 25.000 29.811 25.000 66.572 M70.833 31.018 C 69.137 31.663,67.262 32.368,66.667 32.584 C 66.071 32.800,64.683 33.324,63.583 33.748 C 62.483 34.172,61.171 34.665,60.667 34.843 C 60.163 35.021,59.600 35.239,59.417 35.326 C 59.233 35.414,58.221 35.797,57.167 36.177 C 56.112 36.557,55.014 36.973,54.725 37.101 C 54.436 37.229,54.136 37.334,54.058 37.334 C 53.980 37.335,53.729 37.433,53.500 37.552 C 53.271 37.671,52.465 37.984,51.708 38.246 L 50.333 38.724 50.333 66.612 C 50.333 85.485,50.388 94.500,50.504 94.500 C 50.658 94.500,53.283 95.473,54.083 95.827 C 54.267 95.908,55.167 96.251,56.083 96.588 C 57.000 96.926,57.975 97.298,58.250 97.415 C 58.525 97.532,59.050 97.721,59.417 97.835 C 59.783 97.950,60.158 98.099,60.250 98.166 C 60.342 98.234,60.829 98.422,61.333 98.583 C 61.837 98.745,62.325 98.933,62.417 99.000 C 62.508 99.068,62.883 99.219,63.250 99.335 C 63.617 99.452,64.554 99.806,65.333 100.123 C 66.112 100.439,67.125 100.830,67.583 100.992 C 69.085 101.521,72.572 102.848,73.109 103.093 C 74.273 103.626,74.167 107.303,74.167 66.583 C 74.167 46.371,74.110 29.836,74.042 29.840 C 73.973 29.843,72.529 30.374,70.833 31.018 " stroke="none" fill="#f45c24" fill-rule="evenodd"></path><path id="path3" d="M-0.000 66.586 C -0.000 86.797,0.056 103.331,0.125 103.328 C 0.194 103.325,0.550 103.177,0.917 103.000 C 1.283 102.823,1.648 102.675,1.727 102.672 C 1.914 102.665,4.925 101.553,5.625 101.232 L 6.167 100.984 6.167 66.572 L 6.167 32.160 5.792 32.004 C 5.585 31.919,4.667 31.571,3.750 31.231 C 2.833 30.891,1.615 30.438,1.042 30.226 L -0.000 29.839 -0.000 66.586 M98.167 30.178 C 97.662 30.355,97.100 30.570,96.917 30.657 C 96.377 30.914,94.474 31.630,93.708 31.864 L 93.000 32.081 93.000 66.538 L 93.000 100.996 93.625 101.262 C 93.969 101.409,95.075 101.825,96.083 102.187 C 97.092 102.548,98.153 102.954,98.442 103.089 C 98.731 103.223,99.049 103.333,99.150 103.333 C 99.283 103.333,99.333 93.177,99.333 66.583 C 99.333 46.371,99.277 29.839,99.208 29.846 C 99.140 29.852,98.671 30.002,98.167 30.178 " stroke="none" fill="#fccc04" fill-rule="evenodd"></path><path id="path4" d="M15.667 66.667 C 15.667 89.002,15.727 103.333,15.821 103.333 C 15.983 103.333,18.215 102.477,19.109 102.072 C 19.397 101.941,19.696 101.833,19.773 101.833 C 19.849 101.833,20.794 101.483,21.873 101.054 L 23.834 100.275 23.792 66.533 L 23.750 32.792 21.917 32.144 C 20.908 31.787,19.933 31.427,19.750 31.343 C 19.567 31.259,19.117 31.100,18.750 30.990 C 18.383 30.880,18.008 30.735,17.917 30.669 C 17.690 30.504,16.161 30.000,15.887 30.000 C 15.705 30.000,15.667 36.381,15.667 66.667 M82.667 30.120 C 82.529 30.172,82.229 30.291,82.000 30.385 C 81.771 30.479,81.546 30.568,81.500 30.583 C 81.454 30.599,81.206 30.699,80.947 30.806 C 80.689 30.913,80.433 31.000,80.377 31.000 C 80.322 31.000,79.783 31.189,79.180 31.421 C 78.577 31.653,77.708 31.981,77.250 32.152 C 76.792 32.322,76.173 32.554,75.875 32.667 L 75.333 32.874 75.333 66.573 L 75.333 100.272 76.208 100.621 C 76.690 100.813,77.571 101.156,78.167 101.382 C 78.762 101.609,79.750 101.990,80.362 102.230 C 80.973 102.470,81.521 102.667,81.579 102.667 C 81.637 102.667,82.026 102.822,82.442 103.012 C 82.859 103.201,83.304 103.316,83.433 103.267 C 83.632 103.190,83.667 97.825,83.667 66.589 L 83.667 30.000 83.292 30.013 C 83.085 30.020,82.804 30.069,82.667 30.120 " stroke="none" fill="#f48424" fill-rule="evenodd"></path></g></svg>